<svg width="9" height="9" viewBox="0 0 9 9" fill="none" xmlns="http://www.w3.org/2000/svg">
<path fill-rule="evenodd" clip-rule="evenodd" d="M4.71315 2.39591H5.73648C6.96648 2.39591 7.56648 3.05258 7.56315 4.39924V6.02258C7.56315 7.30924 6.76982 8.10258 5.47982 8.10258H2.97648C1.69315 8.10258 0.896484 7.30924 0.896484 6.01924V3.51591C0.896484 2.13591 1.50982 1.43591 2.71982 1.43591H3.24648C3.55682 1.43258 3.84648 1.57591 4.03648 1.81924L4.32982 2.20924C4.42315 2.32591 4.56315 2.39591 4.71315 2.39591ZM2.68648 5.8658H5.77315C5.90982 5.8658 6.01982 5.75247 6.01982 5.6158C6.01982 5.4758 5.90982 5.3658 5.77315 5.3658H2.68648C2.54648 5.3658 2.43648 5.4758 2.43648 5.6158C2.43648 5.75247 2.54648 5.8658 2.68648 5.8658Z" fill="white"/>
</svg>
