<svg width="16" height="16" viewBox="0 0 16 16" fill="none" xmlns="http://www.w3.org/2000/svg">
<rect width="16" height="16" rx="6" fill="#6C5DD3"/>
<path fill-rule="evenodd" clip-rule="evenodd" d="M10.7144 7.50419L10.971 9.50085C11.1614 10.8042 10.4044 11.3342 9.38768 11.3342H6.62435C5.60468 11.3342 4.82435 10.9675 5.03435 9.50085L5.29435 7.50419C5.33435 7.20752 5.47768 6.93085 5.70102 6.72752C5.87135 6.57785 6.09102 6.49752 6.31769 6.49752V6.42085C6.29102 5.80419 6.60802 5.22085 7.14102 4.90419C7.67435 4.58752 8.34102 4.58752 8.87435 4.90419C9.40768 5.22085 9.72102 5.80419 9.69768 6.42085V6.49752C10.1177 6.49752 10.561 6.79085 10.7144 7.50419ZM6.82435 6.42085C6.82435 5.77419 7.35102 5.24752 8.00102 5.24752C8.65435 5.24752 9.18102 5.77419 9.18102 6.42085V6.49452H6.82435V6.42085ZM6.73435 7.86419C6.73435 8.02419 6.86768 8.15752 7.03102 8.15752C7.19435 8.15752 7.32435 8.02419 7.32435 7.86419C7.32435 7.70085 7.19435 7.57085 7.03102 7.57085C6.86768 7.57085 6.73435 7.70085 6.73435 7.86419ZM8.96435 8.15752C9.04102 8.15752 9.11768 8.12752 9.17102 8.07085C9.22768 8.01752 9.25768 7.94085 9.25768 7.86419C9.25768 7.70085 9.12435 7.57085 8.96435 7.57085C8.80135 7.57085 8.66768 7.70085 8.66768 7.86419C8.66768 8.02419 8.80135 8.15752 8.96435 8.15752Z" fill="white"/>
</svg>
