<svg width="8" height="8" viewBox="0 0 8 8" fill="none" xmlns="http://www.w3.org/2000/svg">
<path fill-rule="evenodd" clip-rule="evenodd" d="M4.00033 0.666687C4.88333 0.666687 5.73333 1.01669 6.35666 1.64335C6.98333 2.27035 7.33366 3.11669 7.33366 4.00335C7.33366 5.17002 6.71999 6.25335 5.71999 6.85669C4.71999 7.46002 3.47666 7.49335 2.44366 6.94335H2.43333C2.37627 6.92045 2.32555 6.88772 2.2751 6.85517C2.23742 6.83086 2.1999 6.80664 2.15999 6.78669C2.05699 6.74335 1.93999 6.73669 1.83366 6.77035C1.58666 6.85669 1.33666 6.92669 1.07999 6.98669C0.946659 6.99002 0.906659 6.91002 0.906659 6.78002C0.966659 6.51669 1.04666 6.25635 1.14033 6.00335C1.17666 5.89335 1.16699 5.77669 1.11033 5.67302L1.04366 5.54335C0.796659 5.07335 0.666992 4.55002 0.666992 4.02035V4.00002C0.666992 3.11669 1.01666 2.26669 1.64333 1.64335C2.26999 1.01669 3.11666 0.666687 4.00033 0.666687ZM2.46333 4.43002C2.22666 4.43002 2.03666 4.23669 2.03666 4.00335C2.03666 3.76669 2.22666 3.57669 2.46333 3.57669C2.69666 3.57669 2.89033 3.76669 2.89033 4.00335C2.89033 4.23669 2.69666 4.43002 2.46333 4.43002ZM3.57333 4.00335C3.57333 4.23669 3.76366 4.43002 4.00033 4.43002C4.23699 4.43002 4.42666 4.23669 4.42666 4.00335C4.42666 3.76669 4.23699 3.57669 4.00033 3.57669C3.76366 3.57669 3.57333 3.76669 3.57333 4.00335ZM5.11033 4.00335C5.11033 4.23669 5.30333 4.43002 5.53666 4.43002C5.77333 4.43002 5.96333 4.23669 5.96333 4.00335C5.96333 3.76669 5.77333 3.57669 5.53666 3.57669C5.30333 3.57669 5.11033 3.76669 5.11033 4.00335Z" fill="white"/>
</svg>
