<svg width="16" height="16" viewBox="0 0 16 16" fill="none" xmlns="http://www.w3.org/2000/svg">
<rect width="16" height="16" rx="6" fill="#FFA2C0"/>
<path fill-rule="evenodd" clip-rule="evenodd" d="M9.72703 5.47002C9.72703 5.02669 10.087 4.66669 10.5304 4.66669C10.9737 4.66669 11.3337 5.02669 11.3337 5.47002C11.3337 5.91335 10.9737 6.27335 10.5304 6.27335C10.087 6.27335 9.72703 5.91335 9.72703 5.47002ZM8.44366 8.91979L9.40699 7.67679L9.39366 7.68345C9.44699 7.61012 9.45699 7.51679 9.42033 7.43345C9.38399 7.35012 9.30366 7.29345 9.21733 7.28679C9.12699 7.27679 9.03733 7.31679 8.98366 7.39012L8.17733 8.43345L7.25366 7.70679C7.19699 7.66345 7.13033 7.64645 7.06366 7.65345C6.99733 7.66345 6.93733 7.69979 6.89699 7.75312L5.91066 9.03679L5.89033 9.06679C5.83366 9.17312 5.86033 9.30979 5.96033 9.38345C6.00699 9.41345 6.05699 9.43345 6.11366 9.43345C6.19066 9.43679 6.26366 9.39645 6.31033 9.33345L7.14699 8.25645L8.09699 8.97012L8.12699 8.98979C8.23366 9.04645 8.36699 9.02012 8.44366 8.91979ZM9.15033 5.26012C9.13699 5.34345 9.13033 5.42679 9.13033 5.51012C9.13033 6.26012 9.73699 6.86645 10.4837 6.86645C10.567 6.86645 10.647 6.85679 10.7303 6.84345V9.53312C10.7303 10.6635 10.0637 11.3335 8.93033 11.3335H6.46733C5.33366 11.3335 4.66699 10.6635 4.66699 9.53312V7.06679C4.66699 5.93345 5.33366 5.26012 6.46733 5.26012H9.15033Z" fill="white"/>
</svg>
